<svg width="20" height="20" viewBox="0 0 20 20" fill="none" xmlns="http://www.w3.org/2000/svg">
<path d="M10 10.2C11.2465 10.2 12.442 9.70482 13.3234 8.8234C14.2048 7.94198 14.7 6.74652 14.7 5.5C14.7 4.25348 14.2048 3.05802 13.3234 2.1766C12.442 1.29518 11.2465 0.8 10 0.8C8.75348 0.8 7.55802 1.29518 6.6766 2.1766C5.79518 3.05802 5.3 4.25348 5.3 5.5C5.3 6.74652 5.79518 7.94198 6.6766 8.8234C7.55802 9.70482 8.75348 10.2 10 10.2ZM12.8 5.5C12.8 6.24261 12.505 6.9548 11.9799 7.4799C11.4548 8.005 10.7426 8.3 10 8.3C9.25739 8.3 8.5452 8.005 8.0201 7.4799C7.495 6.9548 7.2 6.24261 7.2 5.5C7.2 4.75739 7.495 4.0452 8.0201 3.5201C8.5452 2.995 9.25739 2.7 10 2.7C10.7426 2.7 11.4548 2.995 11.9799 3.5201C12.505 4.0452 12.8 4.75739 12.8 5.5ZM2.5 19V19.2H17.5V19C17.5 19.2 17.5001 19.2 17.5002 19.2L17.5005 19.2L17.5011 19.2L17.5027 19.2L17.5075 19.1999L17.5235 19.1995C17.5369 19.1991 17.5555 19.1982 17.5787 19.1966C17.625 19.1933 17.6899 19.1867 17.7673 19.1738C17.921 19.1482 18.129 19.0966 18.3394 18.9914C18.5507 18.8858 18.768 18.7242 18.932 18.4781C19.0969 18.2308 19.2 17.91 19.2 17.5C19.2 16.6986 18.8051 15.1473 17.4539 13.7961C16.0969 12.439 13.7922 11.3 10 11.3C6.20782 11.3 3.90313 12.439 2.54608 13.7961C1.19489 15.1473 0.8 16.6986 0.8 17.5C0.8 17.91 0.903074 18.2308 1.06796 18.4781C1.23202 18.7242 1.44933 18.8858 1.66056 18.9914C1.871 19.0966 2.07902 19.1482 2.23275 19.1738C2.31008 19.1867 2.37496 19.1933 2.4213 19.1966C2.4445 19.1982 2.46315 19.1991 2.47649 19.1995L2.49247 19.1999L2.49733 19.2L2.49894 19.2L2.49954 19.2L2.49979 19.2C2.4999 19.2 2.5 19.2 2.5 19ZM16.1106 15.1394C16.9358 15.9646 17.2142 16.8471 17.2819 17.294H2.71861C2.787 16.8463 3.06469 15.9642 3.88942 15.1394C4.82295 14.2059 6.6073 13.2 10 13.2C13.3912 13.2 15.1771 14.2059 16.1106 15.1394Z" fill="#9A9A9A" stroke="#9A9A9A" stroke-width="0.4"/>
</svg>
