<svg width="18" height="20" viewBox="0 0 18 20" fill="none" xmlns="http://www.w3.org/2000/svg">
<path d="M2.559 6.855C2.725 8.038 3.348 10.062 5.646 10.934C8 11.829 8 12.534 8 13V13.163C6.56 13.597 5.5 14.92 5.5 16.5C5.5 18.43 7.07 20 9 20C10.93 20 12.5 18.43 12.5 16.5C12.5 14.92 11.44 13.597 10 13.163V13C10 12.534 10 11.829 12.354 10.935C14.652 10.063 15.275 8.039 15.441 6.856C16.912 6.441 18 5.102 18 3.5C18 1.57 16.43 0 14.5 0C12.57 0 11 1.57 11 3.5C11 5.052 12.022 6.355 13.424 6.813C13.278 7.548 12.859 8.604 11.646 9.065C10.454 9.517 9.593 10.018 9 10.601C8.407 10.018 7.547 9.517 6.354 9.065C5.141 8.604 4.721 7.548 4.576 6.813C5.978 6.355 7 5.052 7 3.5C7 1.57 5.43 0 3.5 0C1.57 0 0 1.57 0 3.5C0 5.102 1.088 6.441 2.559 6.855ZM14.5 2C15.327 2 16 2.673 16 3.5C16 4.327 15.327 5 14.5 5C13.673 5 13 4.327 13 3.5C13 2.673 13.673 2 14.5 2ZM10.5 16.5C10.5 17.327 9.827 18 9 18C8.173 18 7.5 17.327 7.5 16.5C7.5 15.673 8.173 15 9 15C9.827 15 10.5 15.673 10.5 16.5ZM3.5 2C4.327 2 5 2.673 5 3.5C5 4.327 4.327 5 3.5 5C2.673 5 2 4.327 2 3.5C2 2.673 2.673 2 3.5 2Z" fill="#9F9F9F"/>
</svg>
