<?xml version="1.0" encoding="utf-8"?>
<!-- Generator: Adobe Illustrator 24.0.3, SVG Export Plug-In . SVG Version: 6.00 Build 0)  -->
<svg version="1.1" id="Layer_1" xmlns="http://www.w3.org/2000/svg" xmlns:xlink="http://www.w3.org/1999/xlink" x="0px" y="0px"
	 viewBox="0 0 144.3 132.1" style="enable-background:new 0 0 144.3 132.1;" xml:space="preserve">
<path class="st0" fill="#EF0044" d="M117.4,78.5c-2.2,0-4.3,0.3-6.3,0.8L91.6,45.3c4.6-4.8,7.4-11.3,7.4-18.5C98.9,12,86.9,0,72.1,0
	S45.3,12,45.3,26.8c0,7.2,2.8,13.7,7.4,18.5L33.1,79.2c-2-0.5-4.1-0.8-6.3-0.8C12,78.5,0,90.5,0,105.3c0,14.8,12,26.8,26.8,26.8
	c14.8,0,26.8-12,26.8-26.8c0-7.2-2.8-13.7-7.4-18.5l19.6-33.9c2,0.5,4.1,0.8,6.3,0.8c2.2,0,4.3-0.3,6.3-0.8L98,86.8
	c-4.6,4.8-7.4,11.3-7.4,18.5c0,14.8,12,26.8,26.8,26.8c14.8,0,26.8-12,26.8-26.8C144.3,90.5,132.3,78.5,117.4,78.5z M26.8,118.9
	c-7.5,0-13.6-6.1-13.6-13.6s6.1-13.6,13.6-13.6c7.5,0,13.6,6.1,13.6,13.6S34.3,118.9,26.8,118.9z M58.5,26.8
	c0-7.5,6.1-13.6,13.6-13.6c7.5,0,13.6,6.1,13.6,13.6s-6.1,13.6-13.6,13.6C64.6,40.4,58.5,34.3,58.5,26.8z M117.4,118.9
	c-7.5,0-13.6-6.1-13.6-13.6s6.1-13.6,13.6-13.6s13.6,6.1,13.6,13.6S124.9,118.9,117.4,118.9z"/>
</svg>
