<?xml version="1.0" standalone="no"?>
<!DOCTYPE svg PUBLIC "-//W3C//DTD SVG 20010904//EN"
 "http://www.w3.org/TR/2001/REC-SVG-20010904/DTD/svg10.dtd">
<svg version="1.0" xmlns="http://www.w3.org/2000/svg"
 width="576.000000pt" height="576.000000pt" viewBox="0 0 576.000000 576.000000"
 preserveAspectRatio="xMidYMid meet">
<metadata>
Created by potrace 1.11, written by Peter Selinger 2001-2013
</metadata>
<g transform="translate(0.000000,576.000000) scale(0.100000,-0.100000)"
fill="#000000" stroke="none">
<path d="M2737 5504 c-1 -2 -18 -6 -37 -9 -104 -17 -274 -76 -330 -113 -14 -9
-27 -17 -30 -17 -5 -1 -81 -49 -109 -70 -7 -5 -53 -48 -101 -95 -155 -151
-262 -348 -306 -565 -11 -56 -14 -301 -4 -361 33 -194 101 -342 233 -513 45
-58 49 -66 37 -85 -33 -53 -170 -289 -170 -293 0 -3 -8 -17 -19 -31 -15 -23
-39 -64 -95 -167 -6 -11 -13 -22 -16 -25 -3 -3 -10 -14 -16 -25 -30 -55 -40
-71 -47 -76 -5 -3 -7 -8 -6 -10 2 -2 -4 -15 -13 -29 -8 -14 -33 -56 -55 -95
-22 -38 -97 -168 -167 -288 -69 -121 -126 -223 -126 -228 0 -5 -3 -9 -8 -9 -4
0 -12 -10 -17 -22 -11 -25 -12 -25 -114 -8 -93 16 -213 14 -332 -5 -100 -15
-317 -93 -327 -117 -2 -4 -9 -8 -16 -8 -39 0 -246 -177 -320 -274 -62 -80
-157 -254 -172 -314 -2 -9 -10 -40 -18 -69 -8 -29 -18 -67 -21 -85 -11 -55
-14 -290 -4 -343 5 -28 12 -63 15 -80 20 -117 115 -318 204 -429 17 -22 150
-155 172 -172 48 -38 117 -84 126 -84 6 0 12 -3 14 -8 5 -11 156 -78 218 -96
120 -35 192 -44 333 -41 165 3 285 30 422 94 83 39 207 116 213 132 2 5 8 9
14 9 19 0 161 154 211 227 83 125 144 273 173 423 3 19 6 105 6 190 0 134 -3
167 -24 245 -48 172 -105 289 -202 410 -31 39 -56 73 -56 76 0 6 161 288 266
465 30 51 54 96 54 102 0 6 4 12 9 14 7 3 38 55 87 148 11 19 21 37 24 40 3 3
32 50 63 105 32 55 62 107 66 115 30 49 56 96 56 100 0 3 12 23 26 45 14 22
43 72 64 110 22 39 43 72 47 73 4 2 8 10 8 18 0 14 12 13 105 -7 22 -5 101 -7
175 -5 123 3 165 8 211 22 16 4 33 -17 74 -91 22 -39 86 -150 95 -165 5 -8 46
-78 90 -155 44 -77 85 -147 90 -155 6 -8 13 -21 17 -29 3 -7 76 -133 161 -280
85 -146 163 -282 174 -301 11 -19 38 -65 60 -102 l39 -68 -54 -67 c-115 -146
-196 -316 -221 -468 -3 -16 -8 -46 -11 -65 -9 -50 -9 -239 0 -279 4 -18 8 -42
10 -54 12 -103 83 -280 159 -397 46 -70 150 -188 200 -226 135 -102 215 -148
326 -189 73 -26 87 -30 140 -40 14 -2 48 -9 75 -14 70 -14 297 -6 375 13 123
29 320 108 320 127 0 5 5 9 12 9 6 0 26 11 44 25 18 14 35 25 38 25 7 0 16 8
116 105 89 85 214 271 237 350 1 6 12 37 24 70 11 33 23 69 25 80 2 11 6 31 9
45 19 86 24 268 11 365 -11 79 -35 169 -65 243 -52 131 -141 262 -245 364 -67
67 -221 178 -245 178 -6 0 -11 5 -11 10 0 6 -5 10 -12 10 -6 0 -30 9 -52 19
-60 29 -208 70 -289 80 -73 9 -262 7 -307 -3 -93 -21 -78 -32 -166 120 -43 76
-84 148 -91 159 -7 11 -16 27 -20 35 -4 8 -26 48 -50 88 -24 40 -43 77 -43 82
0 6 -4 10 -10 10 -5 0 -10 4 -10 9 0 5 -56 107 -125 227 -69 119 -125 218
-125 220 0 2 -20 37 -45 77 -25 41 -45 80 -45 86 0 6 -4 11 -10 11 -5 0 -10 4
-10 9 0 5 -25 51 -55 102 -30 52 -55 97 -55 101 0 4 14 22 31 40 125 134 226
362 253 568 8 57 8 217 1 250 -3 14 -8 44 -10 67 -7 57 -58 209 -96 285 -156
309 -443 523 -782 582 -67 12 -310 19 -320 10z m233 -529 c160 -24 319 -143
393 -295 17 -36 33 -69 34 -75 1 -5 5 -21 8 -35 14 -53 14 -205 0 -260 -40
-150 -150 -287 -285 -352 -41 -20 -88 -40 -105 -44 -63 -14 -211 -13 -270 2
-300 79 -475 387 -384 676 12 40 23 75 24 78 6 20 30 60 36 60 4 0 10 8 14 19
6 21 72 90 119 125 74 56 161 91 261 104 62 8 80 8 155 -3z m-1722 -3153 c74
-29 130 -63 190 -117 50 -45 132 -162 132 -188 0 -8 3 -17 8 -21 4 -4 8 -12 8
-17 1 -5 2 -10 4 -11 2 -3 5 -17 14 -63 11 -57 7 -170 -8 -228 -47 -175 -188
-327 -353 -381 -93 -30 -204 -37 -283 -17 -25 6 -52 13 -60 15 -81 20 -245
145 -280 213 -8 15 -17 30 -21 33 -9 9 -46 103 -55 140 -4 19 -9 42 -11 50 -7
31 -3 156 6 188 5 17 7 32 4 32 -3 0 -1 6 4 13 6 6 13 24 16 38 20 83 142 225
241 280 94 52 165 68 286 64 75 -2 120 -9 158 -23z m3567 13 c412 -108 551
-605 254 -906 -65 -65 -172 -129 -239 -143 -14 -3 -36 -8 -50 -11 -79 -19
-217 -2 -308 36 -161 69 -292 232 -319 399 -7 46 -7 168 0 200 3 14 8 36 11
50 11 51 78 167 127 218 76 81 195 147 294 165 57 10 176 6 230 -8z"/>
</g>
</svg>
